<?xml version="1.0" standalone="no"?>
<!DOCTYPE svg PUBLIC "-//W3C//DTD SVG 20010904//EN"
 "http://www.w3.org/TR/2001/REC-SVG-20010904/DTD/svg10.dtd">
<svg version="1.0" xmlns="http://www.w3.org/2000/svg"
 width="65" height="65" viewBox="0 0 65 65"
 preserveAspectRatio="xMidYMid meet">

<path d="M0 12500 l0 -12500 12500 0 12500 0 0 12500 0 12500 -12500 0 -12500
0 0 -12500z m19185 1120 c452 -20 880 -73 923 -116 7 -8 19 -14 27 -14 27 0
263 -73 378 -117 465 -176 877 -465 1213 -848 275 -314 525 -655 523 -715 0
-8 -23 -34 -52 -57 -228 -181 -1650 -1123 -1697 -1123 -24 0 -118 103 -182
198 -143 214 -324 410 -471 510 -153 105 -340 180 -550 219 -133 24 -479 25
-599 0 -532 -108 -828 -457 -828 -976 0 -155 17 -249 67 -376 165 -418 451
-618 1608 -1123 1352 -589 2053 -999 2530 -1477 327 -327 548 -688 695 -1135
227 -687 247 -1491 54 -2162 -309 -1075 -1215 -1843 -2525 -2141 -312 -72
-468 -91 -839 -108 -361 -15 -860 0 -1190 37 -444 50 -1000 219 -1475 448
-503 243 -955 568 -1262 907 -216 239 -640 859 -646 946 -2 24 10 34 108 97
60 38 371 221 690 407 319 185 692 402 829 482 l249 146 47 -62 c26 -34 88
-120 139 -191 123 -172 219 -284 377 -442 142 -141 301 -278 422 -363 205
-143 576 -276 912 -326 150 -23 494 -31 642 -16 344 36 660 144 881 302 102
72 257 231 305 312 115 192 160 421 133 684 -13 132 -38 218 -93 327 -128 256
-310 412 -767 656 -238 127 -729 357 -1191 557 -898 390 -1430 688 -1850 1036
-126 105 -372 350 -449 447 -287 361 -555 900 -621 1248 -52 277 -80 761 -62
1094 16 294 45 451 128 709 329 1026 1134 1748 2259 2028 349 87 695 113 1210
91z m-5198 -139 c149 -3 275 -9 278 -13 18 -18 24 -295 24 -1135 l1 -903
-1625 0 -1625 0 0 -4625 0 -4625 -1155 0 -1155 0 0 4625 0 4625 -1625 0 -1625
0 0 515 c0 337 3 515 10 515 7 0 10 177 10 510 l0 510 633 1 c347 1 1224 5
1947 9 1400 8 5452 2 5907 -9z"/>
</svg>
