<svg width="22" height="22" viewBox="0 0 22 22" fill="none" xmlns="http://www.w3.org/2000/svg">
<g clip-path="url(#clip0)">
<path d="M1.01229 2.85988L0.987701 19.1099C0.98614 20.1411 1.82861 20.9861 2.85986 20.9877L19.1098 21.0123C20.1411 21.0139 20.9861 20.1714 20.9877 19.1401L21.0123 2.89015C21.0138 1.8589 20.1714 1.01388 19.1401 1.01232L2.89013 0.987723C1.85888 0.986163 1.01385 1.82863 1.01229 2.85988ZM15.0094 4.80669L15.0341 6.63486C15.0341 6.63486 15.1116 7.02935 14.7552 7.54444C14.2854 8.22748 13.062 8.87 13.2212 9.37399C13.3804 9.88236 14.478 9.8684 14.478 9.8684C14.478 9.8684 14.7123 9.865 14.8372 9.98206C14.9738 10.1073 15.0003 10.3573 15.0003 10.3573L14.9991 11.1736C14.9991 11.1736 15.1057 12.9787 13.4471 14.5656C11.6401 16.2972 8.05528 17.8231 8.05528 17.8231C8.05528 17.8231 7.82077 17.9127 7.70779 17.8144C7.57921 17.7048 7.57153 17.4117 7.57153 17.4117L7.56261 15.4548C7.56261 15.4548 7.59414 15.2711 7.69184 15.1388C7.77013 15.0295 7.92272 14.971 7.92272 14.971C7.92272 14.971 8.72383 14.6559 9.44758 14.2389C10.8588 13.4248 11.1681 13.0421 11.0204 12.765C10.8023 12.3622 9.02462 12.4808 9.02462 12.4808C9.02462 12.4808 8.38025 12.4723 8.09431 12.6825C7.87156 12.8459 7.80422 13.1545 7.78839 13.2877C7.7726 13.397 7.51913 13.2166 7.40198 12.9821C7.23064 12.6299 7.2197 12.0093 7.22894 11.2749C7.23355 10.7043 7.27318 10.5369 7.32414 10.3138C7.48892 9.63844 8.11794 9.87002 9.62544 9.8723C10.1098 9.87303 10.7897 9.95969 11.0127 9.61253C11.1104 9.46392 11.0291 9.09693 9.47176 8.17644C8.73429 7.74158 7.86729 7.41214 7.86729 7.41214C7.86729 7.41214 7.71114 7.34128 7.64506 7.2318C7.57898 7.11858 7.59859 6.96611 7.59859 6.96611L7.58983 4.90734C7.58983 4.90734 7.51639 4.28973 7.79779 4.1889C8.09107 4.08372 8.77431 4.42101 9.89367 5.26208C11.7316 6.64361 11.5595 6.7996 12.6237 5.65308C13.641 4.56087 14.1376 4.33475 14.2001 4.29609C14.9508 3.85223 15.0081 4.80544 15.0081 4.80544L15.0094 4.80669Z" fill="white"/>
</g>
<defs>
<clipPath id="clip0">
<rect width="20" height="20" fill="white" transform="translate(0.984863 20.9849) rotate(-89.9133)"/>
</clipPath>
</defs>
</svg>
